<svg xmlns="http://www.w3.org/2000/svg" width="26" height="26" viewBox="0 0 26 26">
    <g fill="none" fill-rule="evenodd">
        <ellipse cx="12.812" cy="12.8" fill="#7ED321" stroke="#000" stroke-opacity=".3" stroke-width=".8" rx="12.412" ry="12.4"/>
        <path d="M4.27 4.267h17.084v17.066H4.27z"/>
        <path fill="#FFF" fill-rule="nonzero" d="M12.812 10.473a2.328 2.328 0 1 0 0 4.654 2.328 2.328 0 1 0 0-4.654zm5.207 1.745a5.236 5.236 0 0 0-4.624-4.62V6.4H12.23v1.199a5.236 5.236 0 0 0-4.624 4.62h-1.2v1.163h1.2a5.236 5.236 0 0 0 4.624 4.62V19.2h1.165v-1.199a5.236 5.236 0 0 0 4.624-4.62h1.2v-1.163h-1.2zm-5.207 4.655a4.072 4.072 0 1 1 0-8.146 4.072 4.072 0 1 1 0 8.146z"/>
    </g>
</svg>
